<?xml version="1.0" encoding="UTF-8"?>
<!-- TODO: replace with GPT-generated PNG (see docs/superpowers/specs/2026-04-28-finly-a4-redesign-design.md section 6.3) -->
<svg xmlns="http://www.w3.org/2000/svg" viewBox="0 0 80 80" fill="none" aria-hidden="true">
  <circle cx="40" cy="40" r="36" fill="#d4a93a" opacity="0.15"/>
  <ellipse cx="40" cy="50" rx="20" ry="18" fill="#2c8a92"/>
  <ellipse cx="40" cy="56" rx="11" ry="7" fill="#a4d8d6"/>
  <path d="M40 35 L35 24 L40 30 L45 24 Z" fill="#1f6a72"/>
  <circle cx="34" cy="49" r="2.2" fill="#1a1208"/>
  <circle cx="46" cy="49" r="2.2" fill="#1a1208"/>
  <path d="M34 60 Q40 64 46 60" stroke="#1a1208" stroke-width="1.5" fill="none" stroke-linecap="round"/>
  <ellipse cx="56" cy="35" rx="5" ry="10" fill="#2c8a92" transform="rotate(30 56 35)"/>
  <path d="M57 18 L67 18 L65 28 Q62 32 59 28 Z" fill="#d4a93a" stroke="#8a6818" stroke-width="1.5"/>
  <rect x="60" y="29" width="4" height="6" fill="#8a6818"/>
  <ellipse cx="62" cy="36" rx="6" ry="2" fill="#d4a93a"/>
  <circle cx="20" cy="20" r="2" fill="#f97316"/>
  <circle cx="62" cy="10" r="1.5" fill="#d4a93a"/>
  <circle cx="72" cy="28" r="1.5" fill="#d4a93a"/>
</svg>
