<?xml version="1.0" encoding="UTF-8"?>
<!-- TODO: replace with GPT-generated PNG (see docs/superpowers/specs/2026-04-28-finly-a4-redesign-design.md section 6.3) -->
<svg xmlns="http://www.w3.org/2000/svg" viewBox="0 0 200 200" fill="none" aria-hidden="true">
  <ellipse cx="100" cy="180" rx="55" ry="6" fill="#1a1208" opacity="0.15"/>
  <rect x="40" y="100" width="120" height="60" fill="#faf6ec" stroke="#b8881e" stroke-width="2" rx="3"/>
  <line x1="55" y1="115" x2="145" y2="115" stroke="#1a1208" stroke-width="1" opacity="0.5"/>
  <line x1="55" y1="125" x2="135" y2="125" stroke="#1a1208" stroke-width="1" opacity="0.5"/>
  <line x1="55" y1="135" x2="145" y2="135" stroke="#1a1208" stroke-width="1" opacity="0.5"/>
  <line x1="55" y1="145" x2="125" y2="145" stroke="#1a1208" stroke-width="1" opacity="0.5"/>
  <ellipse cx="100" cy="65" rx="38" ry="35" fill="#2c8a92"/>
  <ellipse cx="100" cy="76" rx="22" ry="14" fill="#a4d8d6"/>
  <path d="M100 30 L90 10 L100 20 L110 10 Z" fill="#1f6a72"/>
  <circle cx="115" cy="63" r="11" stroke="#d4a93a" stroke-width="2.5" fill="none"/>
  <circle cx="115" cy="63" r="9" fill="#a4d8d6" opacity="0.4"/>
  <circle cx="115" cy="63" r="3" fill="#1a1208"/>
  <line x1="125" y1="70" x2="135" y2="80" stroke="#d4a93a" stroke-width="1.5"/>
  <circle cx="85" cy="63" r="3" fill="#1a1208"/>
  <path d="M88 84 Q100 88 110 84" stroke="#1a1208" stroke-width="2" fill="none" stroke-linecap="round"/>
</svg>
