<?xml version="1.0" encoding="UTF-8"?>
<!-- TODO: replace with GPT-generated PNG (see docs/superpowers/specs/2026-04-28-finly-a4-redesign-design.md section 6.3) -->
<svg xmlns="http://www.w3.org/2000/svg" viewBox="0 0 320 320" fill="none" aria-hidden="true">
  <ellipse cx="160" cy="290" rx="80" ry="10" fill="#1a1208" opacity="0.15"/>
  <ellipse cx="160" cy="220" rx="60" ry="55" fill="#2c8a92"/>
  <ellipse cx="160" cy="230" rx="40" ry="35" fill="#a4d8d6"/>
  <path d="M120 195 Q160 215 200 195 L200 250 Q160 270 120 250 Z" fill="#6b4e1c" opacity="0.85"/>
  <rect x="155" y="225" width="10" height="14" fill="#d4a93a" rx="1"/>
  <ellipse cx="160" cy="120" rx="55" ry="50" fill="#2c8a92"/>
  <ellipse cx="160" cy="135" rx="35" ry="20" fill="#a4d8d6"/>
  <path d="M160 70 L140 30 L160 50 L180 30 Z" fill="#1f6a72"/>
  <path d="M105 120 L80 140 L105 145 Z" fill="#1f6a72"/>
  <path d="M215 120 L240 140 L215 145 Z" fill="#1f6a72"/>
  <circle cx="160" cy="80" r="14" fill="#d4a93a"/>
  <circle cx="160" cy="80" r="9" fill="#fff8d6"/>
  <rect x="155" y="65" width="10" height="20" fill="#6b4e1c"/>
  <circle cx="140" cy="115" r="6" fill="#1a1208"/>
  <circle cx="180" cy="115" r="6" fill="#1a1208"/>
  <circle cx="142" cy="113" r="2" fill="#fff"/>
  <circle cx="182" cy="113" r="2" fill="#fff"/>
  <path d="M140 145 Q160 158 180 145" stroke="#1a1208" stroke-width="2.5" fill="none" stroke-linecap="round"/>
  <rect x="100" y="180" width="120" height="40" fill="#faf6ec" stroke="#b8881e" stroke-width="2" rx="3"/>
  <line x1="115" y1="190" x2="205" y2="190" stroke="#1a1208" stroke-width="1" opacity="0.6"/>
  <line x1="115" y1="200" x2="195" y2="200" stroke="#1a1208" stroke-width="1" opacity="0.6"/>
  <line x1="115" y1="210" x2="200" y2="210" stroke="#1a1208" stroke-width="1" opacity="0.6"/>
  <ellipse cx="105" cy="200" rx="12" ry="22" fill="#2c8a92" transform="rotate(20 105 200)"/>
  <ellipse cx="215" cy="200" rx="12" ry="22" fill="#2c8a92" transform="rotate(-20 215 200)"/>
  <circle cx="50" cy="60" r="3" fill="#f97316"/>
  <circle cx="270" cy="100" r="2" fill="#d4a93a"/>
  <circle cx="280" cy="200" r="2.5" fill="#f97316"/>
</svg>
