<?xml version="1.0" encoding="UTF-8"?>
<!-- TODO: replace with GPT-generated PNG (see docs/superpowers/specs/2026-04-28-finly-a4-redesign-design.md section 6.3) -->
<svg xmlns="http://www.w3.org/2000/svg" viewBox="0 0 240 240" fill="none" aria-hidden="true">
  <ellipse cx="120" cy="220" rx="65" ry="7" fill="#1a1208" opacity="0.15"/>
  <g transform="rotate(180 120 160)">
    <rect x="60" y="135" width="120" height="50" fill="#faf6ec" stroke="#b8881e" stroke-width="2" rx="3"/>
    <path d="M75 165 Q95 150 115 160 Q135 168 165 155" stroke="#c0392b" stroke-width="1.5" stroke-dasharray="4 3" fill="none"/>
    <circle cx="75" cy="165" r="3" fill="#c0392b"/>
    <text x="160" y="178" font-family="Georgia,serif" font-size="9" fill="#1a1208">??</text>
  </g>
  <ellipse cx="120" cy="95" rx="40" ry="38" fill="#2c8a92"/>
  <ellipse cx="120" cy="108" rx="24" ry="14" fill="#a4d8d6"/>
  <path d="M120 55 L108 30 L120 44 L132 30 Z" fill="#1f6a72"/>
  <circle cx="108" cy="92" r="4" fill="#1a1208"/>
  <circle cx="132" cy="92" r="4" fill="#1a1208"/>
  <path d="M108 115 Q120 117 132 115" stroke="#1a1208" stroke-width="2" fill="none" stroke-linecap="round"/>
  <circle cx="160" cy="135" r="13" fill="#d4a93a" stroke="#8a6818" stroke-width="2"/>
  <circle cx="160" cy="135" r="9" fill="#faf6ec"/>
  <path d="M160 128 L162 135 L160 142 L158 135 Z" fill="#c0392b"/>
  <text x="180" y="60" font-family="Georgia,serif" font-size="32" fill="#f97316">!?</text>
</svg>
